<?xml version="1.0" standalone="no"?><!DOCTYPE svg PUBLIC "-//W3C//DTD SVG 1.1//EN" "http://www.w3.org/Graphics/SVG/1.1/DTD/svg11.dtd"><svg t="1708931921505" class="icon" viewBox="0 0 1024 1024" version="1.1" xmlns="http://www.w3.org/2000/svg" p-id="9966" xmlns:xlink="http://www.w3.org/1999/xlink" width="128" height="128"><path d="M512 160c-148.309333 0-266.666667 115.925333-266.666667 256.682667 0 85.546667 34.986667 159.274667 97.493334 205.226666 13.781333 10.112 25.6 25.216 30.08 44.373334 3.712 15.744 7.936 34.901333 12.117333 55.210666h94.976v-46.208a32 32 0 0 1 4.992-17.194666l34.218667-53.76-76.757334-60.245334a32 32 0 0 1-7.253333-42.368l49.792-78.165333a32 32 0 0 1 54.016 34.389333l-34.218667 53.717334 76.757334 60.288a32 32 0 0 1 7.253333 42.325333l-44.8 70.357333v36.864h94.976c4.181333-20.309333 8.405333-39.466667 12.117333-55.210666 4.522667-19.157333 16.298667-34.261333 30.08-44.373334 62.464-45.952 97.493333-119.722667 97.493334-205.226666 0-140.757333-118.357333-256.682667-266.666667-256.682667z m114.730667 625.493333H397.226667c4.693333 27.178667 8.405333 52.906667 9.557333 71.424 1.152 19.498667 15.701333 36.949333 37.162667 41.557334l8.362666 1.834666c39.253333 8.490667 80 8.490667 119.296 0l8.362667-1.834666c21.461333-4.608 36.010667-22.058667 37.205333-41.557334 1.109333-18.474667 4.778667-44.245333 9.514667-71.424zM181.333333 416.682667C181.333333 238.506667 330.410667 96 512 96s330.666667 142.549333 330.666667 320.682667c0 103.424-42.837333 197.418667-123.605334 256.768a13.824 13.824 0 0 0-5.674666 7.509333 2164.906667 2164.906667 0 0 0-16.810667 78.634667c-7.808 40.021333-14.165333 78.848-15.488 101.205333-2.986667 49.408-39.338667 89.813333-87.552 100.266667l-8.362667 1.792c-48.213333 10.410667-98.133333 10.410667-146.346666 0l-8.362667-1.792c-48.213333-10.410667-84.565333-50.858667-87.552-100.266667-1.322667-22.357333-7.68-61.184-15.488-101.205333a2165.12 2165.12 0 0 0-16.810667-78.634667 13.824 13.824 0 0 0-5.674666-7.509333C224.170667 614.101333 181.333333 520.106667 181.333333 416.725333z" fill="#000000" p-id="9967"></path></svg>