<?xml version="1.0" standalone="no"?><!DOCTYPE svg PUBLIC "-//W3C//DTD SVG 1.1//EN" "http://www.w3.org/Graphics/SVG/1.1/DTD/svg11.dtd"><svg t="1708931917710" class="icon" viewBox="0 0 1024 1024" version="1.1" xmlns="http://www.w3.org/2000/svg" p-id="9814" xmlns:xlink="http://www.w3.org/1999/xlink" width="128" height="128"><path d="M512 160c-148.309333 0-266.666667 115.925333-266.666667 256.682667 0 71.637333 24.576 134.997333 69.248 180.693333 5.12 5.248 5.333333 13.653333 0.170667 18.816l-27.093333 27.093333a12.373333 12.373333 0 0 1-17.578667 0.128c-58.197333-58.709333-88.746667-139.349333-88.746667-226.730666C181.333333 238.506667 330.410667 96 512 96c84.992 0 162.858667 31.232 221.653333 82.730667 5.418667 4.736 5.546667 13.056 0.426667 18.133333l-27.178667 27.221333a13.269333 13.269333 0 0 1-18.048 0.469334A271.189333 271.189333 0 0 0 512 160zM853.205333 168.277333L171.946667 849.493333a30.464 30.464 0 0 1-1.152 1.109334l-1.408 1.450666a32 32 0 1 0 45.226666 45.226667l116.778667-116.736c5.930667 32.256 10.410667 61.866667 11.52 80.256 2.986667 49.408 39.338667 89.813333 87.552 100.266667l8.362667 1.792c48.213333 10.410667 98.133333 10.410667 146.346666 0l8.362667-1.792c48.213333-10.410667 84.565333-50.858667 87.552-100.266667 1.322667-22.357333 7.68-61.184 15.488-101.205333 5.589333-28.8 11.776-57.173333 16.810667-78.634667a13.824 13.824 0 0 1 5.674666-7.509333c80.768-59.349333 123.605333-153.344 123.605334-256.768a311.466667 311.466667 0 0 0-24.917334-122.453334L897.28 214.613333a32 32 0 0 0-44.074667-46.336zM778.666667 416.682667c0 85.546667-34.986667 159.274667-97.493334 205.226666a77.568 77.568 0 0 0-30.08 44.373334c-3.712 15.744-7.936 34.901333-12.117333 55.210666H390.4l377.386667-377.386666c7.04 23.04 10.837333 47.402667 10.837333 72.533333zM397.269333 785.493333h229.461334c-4.693333 27.178667-8.405333 52.906667-9.514667 71.424-1.194667 19.498667-15.786667 36.949333-37.205333 41.557334l-8.362667 1.834666a282.752 282.752 0 0 1-119.296 0l-8.362667-1.834666c-21.461333-4.608-36.010667-22.058667-37.162666-41.557334-1.152-18.474667-4.821333-44.245333-9.557334-71.424z" fill="#000000" p-id="9815"></path></svg>