<?xml version="1.0" standalone="no"?><!DOCTYPE svg PUBLIC "-//W3C//DTD SVG 1.1//EN" "http://www.w3.org/Graphics/SVG/1.1/DTD/svg11.dtd"><svg t="1708940211256" class="icon" viewBox="0 0 1024 1024" version="1.1" xmlns="http://www.w3.org/2000/svg" p-id="1403" xmlns:xlink="http://www.w3.org/1999/xlink" width="128" height="128"><path d="M512.40884 0a511.992577 511.992577 0 1 0 511.591329 511.992577A513.196321 513.196321 0 0 0 512.40884 0z m0 959.785458a448.194129 448.194129 0 1 1 447.792881-447.792881 445.385392 445.385392 0 0 1-447.792881 447.792881z" fill="#040000" p-id="1404"></path><path d="M512.40884 703.789169a63.3972 63.3972 0 0 0-44.939787 108.738236 61.792208 61.792208 0 0 0 89.478327 0 64.199696 64.199696 0 0 0-44.53854-108.738236zM544.10744 652.429412l25.679879-460.63282h-115.158205l19.259909 460.63282h70.218417z" fill="#040000" p-id="1405"></path></svg>